<svg width="82" height="82" viewBox="0 0 82 82" fill="none" xmlns="http://www.w3.org/2000/svg">
<path d="M56.4209 30.608H51.0135V13.6035C51.0135 11.733 49.4831 10.2026 47.6126 10.2026H34.009C32.1385 10.2026 30.6081 11.733 30.6081 13.6035V30.608H25.2007C22.1739 30.608 20.6435 34.281 22.786 36.4236L38.3962 52.0337C39.7225 53.36 41.8651 53.36 43.1914 52.0337L58.8016 36.4236C60.9441 34.281 59.4477 30.608 56.4209 30.608ZM17.0045 64.617C17.0045 66.4875 18.5349 68.0179 20.4054 68.0179H61.2162C63.0867 68.0179 64.6171 66.4875 64.6171 64.617C64.6171 62.7465 63.0867 61.2161 61.2162 61.2161H20.4054C18.5349 61.2161 17.0045 62.7465 17.0045 64.617Z" fill="white"/>
</svg>
