<svg width="63" height="63" viewBox="0 0 63 63" fill="none" xmlns="http://www.w3.org/2000/svg">
<path d="M59.9624 7.04649L47.163 0.884314C46.4402 0.5358 45.6268 0.420791 44.8357 0.555228C44.0446 0.689665 43.3149 1.06689 42.7478 1.63461L0.849009 39.833C0.340654 40.2943 0.0363543 40.9386 0.00305097 41.6242C-0.0302524 42.3099 0.210168 42.9806 0.671425 43.489C0.72692 43.549 0.782415 43.6067 0.84235 43.6599L4.26307 46.7677C4.71006 47.1745 5.28541 47.4119 5.88922 47.4386C6.49302 47.4654 7.08713 47.2798 7.56836 46.9142L58.0356 8.64475C58.4168 8.35549 58.8712 8.17838 59.3476 8.13334C59.824 8.08831 60.3035 8.17715 60.7321 8.38985C61.1607 8.60256 61.5215 8.93069 61.7738 9.33731C62.026 9.74393 62.1598 10.2129 62.16 10.6914V10.5427C62.16 9.81215 61.9537 9.09646 61.5649 8.47796C61.1761 7.85946 60.6207 7.36328 59.9624 7.04649V7.04649Z" fill="#0065A9"/>
<path d="M59.9624 55.749L47.163 61.9134C46.44 62.2609 45.6269 62.3754 44.836 62.241C44.0451 62.1066 43.3155 61.73 42.7478 61.1631L0.849009 22.9625C0.340654 22.5012 0.0363543 21.8569 0.00305097 21.1713C-0.0302524 20.4856 0.210168 19.8148 0.671425 19.3065C0.72692 19.2465 0.782415 19.1888 0.84235 19.1355L4.26307 16.0278C4.71051 15.6193 5.28719 15.3808 5.89248 15.3541C6.49777 15.3273 7.09325 15.5139 7.57502 15.8813L58.0356 54.1507C58.4168 54.44 58.8712 54.6171 59.3476 54.6621C59.824 54.7072 60.3035 54.6183 60.7321 54.4056C61.1607 54.1929 61.5215 53.8648 61.7738 53.4582C62.026 53.0516 62.1598 52.5826 62.16 52.1041V52.2639C62.1576 52.9925 61.9503 53.7057 61.5616 54.322C61.173 54.9383 60.6188 55.4328 59.9624 55.749V55.749Z" fill="#007ACC"/>
<path d="M47.163 61.9134C46.44 62.2609 45.6269 62.3754 44.836 62.241C44.0451 62.1066 43.3155 61.73 42.7478 61.1631C43.0666 61.4777 43.4711 61.6913 43.9107 61.777C44.3503 61.8627 44.8055 61.8167 45.2191 61.6449C45.6327 61.473 45.9864 61.1829 46.2358 60.8109C46.4853 60.439 46.6194 60.0016 46.6214 59.5537V3.24175C46.6217 2.79177 46.4886 2.3518 46.2387 1.97758C45.9888 1.60336 45.6335 1.31173 45.2177 1.13962C44.8019 0.967513 44.3444 0.922679 43.9032 1.0108C43.4619 1.09891 43.0567 1.31602 42.7389 1.63461C43.3062 1.06709 44.0357 0.689847 44.8267 0.555036C45.6176 0.420226 46.4309 0.534514 47.1541 0.882094L59.9513 7.03539C60.6116 7.3506 61.1694 7.84611 61.5602 8.46473C61.951 9.08334 62.159 9.79986 62.16 10.5316V52.2639C62.1602 52.9951 61.9538 53.7114 61.5646 54.3303C61.1754 54.9493 60.6192 55.4457 59.9602 55.7623L47.163 61.9134Z" fill="#1F9CF0"/>
</svg>
